<?xml version="1.0" encoding="utf-8"?>
<!-- Generator: Adobe Illustrator 15.0.2, SVG Export Plug-In . SVG Version: 6.00 Build 0)  -->
<!DOCTYPE svg PUBLIC "-//W3C//DTD SVG 1.1//EN" "http://www.w3.org/Graphics/SVG/1.1/DTD/svg11.dtd">
<svg version="1.1" id="Layer_1" xmlns="http://www.w3.org/2000/svg" xmlns:xlink="http://www.w3.org/1999/xlink" x="0px" y="0px"
	 width="185px" height="60px" viewBox="0 0 185 60" enable-background="new 0 0 185 60" xml:space="preserve">
<g>
	<path fill="#6179B1" d="M116.621,26.499c0,12.824-10.396,23.221-23.22,23.221S70.181,39.323,70.181,26.499
		c0-12.826,10.396-23.22,23.221-23.22S116.621,13.673,116.621,26.499"/>
	<path fill="#6BAA76" d="M89.05,38.194h-5.571v-4.804c0,0,0-5.399-5.399-5.399h-7.85c0.719,11.327,9.558,20.447,20.76,21.604
		c0.934-0.736,1.748-1.896,1.748-3.707v-3.396C92.737,39.379,91.349,38.194,89.05,38.194"/>
	<path fill="#6BAA76" d="M109.172,9.457c-1.574-0.011-2.983-0.02-3.843-0.02c-4.306,0-6.611,3.439-6.611,7.059
		c0,2.014-0.035,4.428-0.035,7.59c0,3.801,1.835,6.216,6.645,6.216h1.882c0,0,0,6.612,0,10.079c0,1.354,0.723,2.54,1.605,3.483
		c4.789-4.254,7.807-10.457,7.807-17.366C116.621,19.762,113.753,13.698,109.172,9.457"/>
	<path fill="#6BAA76" d="M70.51,22.594h0.46c1.802,0,5.032-3.91,5.032-3.91s3.937-3.869,6.469-6.401
		c3.001-3.001,2.93-6.956,2.93-6.956V4.693C77.698,7.52,71.911,14.311,70.51,22.594"/>
	<polygon fill="#DAAD32" points="126.477,18.246 75.54,18.246 75.54,34.784 126.477,34.779 123.921,26.27 	"/>
	<polygon fill="#542520" points="75.54,34.784 75.536,30.205 80.122,30.205 	"/>
	<g>
		<g>
			<defs>
				<rect id="SVGID_1_" x="83.603" y="20.571" width="42.874" height="14.212"/>
			</defs>
			<clipPath id="SVGID_2_">
				<use xlink:href="#SVGID_1_"  overflow="visible"/>
			</clipPath>
			<path clip-path="url(#SVGID_2_)" fill="#CBCBCB" d="M125.195,22.268l-1.976-1.696c-1.362,1.307-5.872,5.643-6.272,5.977
				l-4.229-3.973l-0.915-0.915l-0.025,0.021c-0.117-0.173-0.315-0.288-0.541-0.288h-0.002h-2.105c-0.218,0-0.418,0.107-0.54,0.286
				l-1.354,1.982l-2.118-2.118l-0.008,0.007c-0.117-0.099-0.265-0.157-0.423-0.157h-2.107c-0.24,0-0.462,0.133-0.576,0.345
				c-0.112,0.212-0.1,0.47,0.033,0.669l2.165,3.256l-3.872-3.872l-0.01,0.008c-0.165-0.207-0.427-0.35-0.682-0.35h-3.351
				c-0.369,0-0.743,0.291-0.837,0.645l-1.014,3.877l-2.647-2.647l-0.018,0.001c-0.93-1.11-2.322-1.819-3.877-1.827v-0.007h-1.174
				c-0.009,0-0.019-0.003-0.028-0.003h-2.466c-0.344,0-0.625,0.281-0.625,0.625v8.938c0,0.188,0.085,0.358,0.218,0.473l-0.005,0.036
				l3.223,3.222l39.438-0.004l-2.556-8.509L125.195,22.268z"/>
		</g>
	</g>
	<polygon fill="#B4463B" points="58.523,13.237 61.146,21.969 58.523,30.201 80.122,30.205 80.122,13.237 	"/>
	<g>
		<g>
			<defs>
				<rect id="SVGID_3_" x="64.91" y="16.55" width="15.212" height="13.655"/>
			</defs>
			<clipPath id="SVGID_4_">
				<use xlink:href="#SVGID_3_"  overflow="visible"/>
			</clipPath>
			<path clip-path="url(#SVGID_4_)" fill="#CBCBCB" d="M73.519,17.806l-0.022-0.025c-0.019-0.02-0.038-0.039-0.061-0.057
				c-0.901-0.731-2.047-1.174-3.295-1.174c-2.885,0-5.23,2.347-5.23,5.231c0,1.739,0.854,3.281,2.163,4.233l4.189,4.189l8.859,0.001
				v-5.777L73.519,17.806z"/>
		</g>
	</g>
	<path fill="#FFFFFF" d="M111.237,21.393h-0.002h-2.105c-0.218,0-0.418,0.107-0.54,0.286l-1.682,2.462l-1.681-2.462
		c-0.122-0.179-0.322-0.286-0.54-0.286h-2.107c-0.24,0-0.462,0.133-0.576,0.345c-0.112,0.212-0.1,0.47,0.033,0.669l2.761,4.151
		l0.397,0.774v3.679c0,0.357,0.287,0.648,0.644,0.652l2.119,0.034h0.009c0.173,0,0.337-0.066,0.458-0.188
		c0.125-0.121,0.196-0.289,0.196-0.464v-3.667l0.096-0.167l3.06-4.795c0.071-0.105,0.113-0.231,0.113-0.37
		C111.89,21.686,111.598,21.393,111.237,21.393"/>
	<path fill="#FFFFFF" d="M102.802,31.001l-2.329-8.908c-0.092-0.354-0.469-0.645-0.834-0.645h-3.351
		c-0.368,0-0.743,0.291-0.836,0.645l-2.33,8.908c-0.092,0.354,0.132,0.645,0.499,0.645h0.636h1.442h0.667l0.364-1.39h2.466
		l0.362,1.39h0.667h1.089h0.99C102.671,31.646,102.894,31.356,102.802,31.001 M97.296,27.7l0.667-2.554l0.668,2.554H97.296z"/>
	<path fill="#FFFFFF" d="M92.959,26.585c0-2.797-2.271-5.074-5.063-5.086v-0.007h-1.174c-0.009,0-0.018-0.003-0.028-0.003h-2.466
		c-0.344,0-0.624,0.281-0.624,0.625v8.938c0,0.344,0.28,0.625,0.624,0.625h2.466c0.016,0,0.031-0.003,0.047-0.005h1.155V31.67
		C90.688,31.657,92.959,29.381,92.959,26.585 M87.825,28.239V28.23H87.15v-3.297h0.599v0l0.001,0h0.075v-0.002
		c0.901,0.016,1.63,0.75,1.63,1.654C89.455,27.489,88.727,28.223,87.825,28.239"/>
	<path fill="#FFFFFF" d="M74.863,20.824h-2.837h0.001h-1.282c-0.207,0-0.376,0.169-0.376,0.376v1.614
		c0,0.207,0.169,0.375,0.376,0.375h0.973c-0.389,0.434-0.95,0.709-1.577,0.709c-1.168,0-2.117-0.949-2.117-2.117
		c0-1.167,0.949-2.117,2.117-2.117c0.563,0,1.076,0.223,1.456,0.584c0,0,1.779-1.777,1.888-1.888
		c0.108-0.111,0.234-0.407-0.049-0.637c-0.901-0.731-2.047-1.174-3.295-1.174c-2.885,0-5.23,2.347-5.23,5.231s2.346,5.23,5.23,5.23
		c2.884,0,5.231-2.346,5.231-5.23c0-0.244-0.016-0.479-0.042-0.651C75.289,20.915,75.117,20.824,74.863,20.824"/>
	<path fill="#FFFFFF" d="M123.15,21.239c0.077-0.114,0.122-0.25,0.122-0.398c0-0.39-0.314-0.705-0.703-0.705h-0.002h-2.27
		c-0.234,0-0.451,0.115-0.583,0.308l-1.813,2.655l-1.812-2.655c-0.132-0.192-0.349-0.308-0.582-0.308h-2.272
		c-0.259,0-0.497,0.143-0.621,0.371c-0.121,0.229-0.107,0.507,0.036,0.722l3.405,5.31l-3.4,5.348
		c-0.078,0.113-0.123,0.249-0.123,0.398c0,0.389,0.315,0.705,0.704,0.705h0.002h2.269c0.235,0,0.451-0.116,0.583-0.309l1.813-2.654
		l1.813,2.654c0.131,0.192,0.348,0.309,0.581,0.309h2.272c0.259,0,0.497-0.144,0.621-0.372c0.121-0.228,0.107-0.507-0.035-0.722
		l-3.405-5.31L123.15,21.239z"/>
	<polygon fill="#4F4F4F" points="115.212,53.997 88.667,56.721 87.253,43.586 113.799,40.862 	"/>
	
		<text transform="matrix(0.9945 -0.1045 0.1045 0.9945 91.4609 53.7192)" fill="#FFFFFF" font-family="'Oswald-Regular'" font-size="8.8889">CHILE</text>
</g>
</svg>
